<svg width="34" height="32" viewBox="0 0 34 32" fill="none" xmlns="http://www.w3.org/2000/svg">
<path d="M16.9998 28.8241H17H16.9998ZM25.4231 21.5758C24.6852 21.424 24.1573 21.3343 24.1573 21.3343L25.4231 21.8986L27.1715 22.6781L27.507 22.7373C26.9664 22.7765 26.3471 22.8949 25.6583 23.1441C25.5826 23.1716 25.5039 23.2025 25.4231 23.2358C25.3346 23.2723 25.2424 23.3127 25.1483 23.3558C24.7751 23.5257 24.3609 23.7441 23.9213 23.9968C22.791 24.6461 21.4998 25.5155 20.3403 26.338C19.1598 27.1753 18.1164 27.9635 17.5221 28.4196L17.4056 26.7206L17.1751 23.3558L17.1505 22.9955C17.2366 22.9668 17.3578 22.9268 17.507 22.8779C17.8043 22.7805 18.2147 22.6488 18.6892 22.5027C19.1879 22.3491 19.7569 22.1804 20.3403 22.019C21.6945 21.6448 23.1227 21.3144 23.9213 21.3214C24.0068 21.322 24.0873 21.3255 24.1573 21.3343C24.1573 21.3343 24.0846 21.2891 23.9213 21.2371C23.5638 21.1229 22.7722 20.9767 21.3602 21.2026C21.023 21.2566 20.6794 21.3301 20.3403 21.4152C19.7571 21.5615 19.1881 21.7418 18.6892 21.9171C17.9456 22.1784 17.3588 22.4274 17.1188 22.5326L17.1186 22.529H16.9998H16.8812L16.881 22.5326C16.6196 22.4181 15.9471 22.1327 15.1083 21.847C14.6007 21.6742 14.0325 21.5013 13.4572 21.366C13.1843 21.3018 12.9098 21.246 12.6396 21.2026C10.832 20.9133 10.0415 21.2343 9.87625 21.3162C9.85348 21.3275 9.84248 21.3343 9.84248 21.3343C9.85291 21.3331 9.86544 21.3327 9.87625 21.3315C9.95518 21.3234 10.0423 21.3192 10.1392 21.3204C10.9071 21.3297 12.1996 21.6222 13.4572 21.9636C14.0329 22.1198 14.6011 22.2862 15.1083 22.4408C15.9154 22.6865 16.5678 22.9017 16.8493 22.9955L16.8247 23.3558L16.5941 26.7206L16.4784 28.409C15.8506 27.9141 14.7207 27.0376 13.4572 26.125C12.2804 25.2752 10.9887 24.3947 9.87625 23.7598C9.61384 23.61 9.36168 23.4745 9.12318 23.3558C8.8991 23.2442 8.68754 23.1481 8.49135 23.0704C8.44069 23.0505 8.38984 23.03 8.34165 23.0124C7.80829 22.8196 7.31725 22.7108 6.87136 22.659L8.49135 21.9367L9.84248 21.3343C9.84248 21.3343 9.27364 21.431 8.49135 21.5935C6.87668 21.9289 4.35163 22.5446 4.03534 23.1708L9.87625 26.0903L13.3318 27.8176L16.9998 29.651L20.668 27.8176L23.9213 26.1913L29.9644 23.1708C29.6425 22.5334 27.0326 21.9068 25.4231 21.5758" fill="black"/>
<path d="M16.9573 7.4258C16.9573 7.4258 24.9093 8.58287 26.6843 10.8177C26.6843 10.8177 27.0015 7.17813 23.301 4.91898C18.7985 2.17047 16.9573 -3.15902e-06 16.9573 -3.15902e-06C16.9573 -3.15902e-06 15.1159 2.17047 10.6134 4.91898C6.91294 7.17813 7.23018 10.8177 7.23018 10.8177C8.94409 8.65998 16.9573 7.4258 16.9573 7.4258" fill="black"/>
<path d="M24.5914 19.9417C24.7698 19.9736 25.0622 20.0276 25.423 20.0995V12.0527C25.423 10.2865 16.9573 8.85465 16.9573 8.85465C16.9573 8.85465 8.49133 10.2865 8.49133 12.0527V20.1167C8.89187 20.0362 9.21613 19.9762 9.40834 19.9417C9.53357 19.8913 9.68991 19.8395 9.87623 19.7929V14.0727C9.87623 14.0699 9.87661 14.0675 9.87661 14.0647C9.87472 14.0675 9.87168 14.0699 9.86997 14.0727C9.86997 14.0727 9.81134 13.289 10.495 12.8027C11.3266 12.2109 11.6666 11.7434 11.6666 11.7434C11.6666 11.7434 12.0068 12.2109 12.8386 12.8027C13.5223 13.289 13.4636 14.0727 13.4636 14.0727C13.4617 14.0699 13.4587 14.0675 13.4568 14.0647C13.4568 14.0673 13.4572 14.0699 13.4572 14.0727V19.8838C14.0234 20.0031 14.5865 20.1597 15.1083 20.3247V12.9756C15.1083 12.973 15.1087 12.9704 15.1087 12.9676C15.1068 12.9704 15.1037 12.973 15.1018 12.9756C15.1018 12.9756 15.0434 12.192 15.7268 11.7056C16.5586 11.1138 16.8988 10.6463 16.8988 10.6463C16.8988 10.6463 17.2389 11.1138 18.0707 11.7056C18.7541 12.192 18.6957 12.9756 18.6957 12.9756C18.6938 12.973 18.6907 12.9704 18.6888 12.9676C18.6888 12.9702 18.6892 12.973 18.6892 12.9756V20.3899C19.2053 20.2213 19.769 20.0581 20.3403 19.9288V14.0727C20.3403 14.0699 20.3407 14.0675 20.3407 14.0647C20.3388 14.0675 20.3358 14.0699 20.3341 14.0727C20.3341 14.0727 20.2754 13.289 20.9591 12.8027C21.7907 12.2109 22.1307 11.7434 22.1307 11.7434C22.1307 11.7434 22.4709 12.2109 23.3027 12.8027C23.9863 13.289 23.9277 14.0727 23.9277 14.0727C23.9258 14.0699 23.9228 14.0675 23.9209 14.0647C23.9209 14.0673 23.9213 14.0699 23.9213 14.0727V19.7477C24.2009 19.8039 24.4237 19.8742 24.5914 19.9417" fill="black"/>
<path d="M29.4286 13.0926C29.4286 13.0926 31.1097 13.3372 31.4848 13.8097C31.4848 13.8097 31.552 12.7341 30.7697 12.2565C29.818 11.6755 29.4286 11.2168 29.4286 11.2168C29.4286 11.2168 29.0393 11.6755 28.0875 12.2565C27.3052 12.7341 27.3722 13.8097 27.3722 13.8097C27.7346 13.3536 29.4286 13.0926 29.4286 13.0926" fill="black"/>
<path d="M27.639 14.9492V20.6018C29.1636 20.995 30.2462 21.3927 30.8786 22.003H31.2183V14.9492C31.2183 14.5758 29.4286 14.2731 29.4286 14.2731C29.4286 14.2731 27.639 14.5758 27.639 14.9492" fill="black"/>
<path d="M4.57112 13.0926C4.57112 13.0926 6.2651 13.3536 6.6275 13.8097C6.6275 13.8097 6.69448 12.7341 5.91219 12.2565C4.96046 11.6755 4.57112 11.2168 4.57112 11.2168C4.57112 11.2168 4.18196 11.6755 3.23024 12.2565C2.44794 12.7341 2.51492 13.8097 2.51492 13.8097C2.89022 13.3372 4.57112 13.0926 4.57112 13.0926Z" fill="black"/>
<path d="M2.78162 14.9492V22.003H3.12144C3.75365 21.3927 4.83649 20.995 6.36104 20.6018V14.9492C6.36104 14.5758 4.57123 14.2731 4.57123 14.2731C4.57123 14.2731 2.78162 14.5758 2.78162 14.9492" fill="black"/>
<path d="M24.0829 28.0255L16.9998 31.1484L9.91857 28.0259L0 23.6526C0.22004 25.263 1.29134 26.6028 2.76371 27.1085L16.9998 32L31.2361 27.1085C32.7084 26.6028 33.7799 25.263 34 23.6526L24.0829 28.0255Z" fill="black"/>
</svg>
